<?xml version="1.0" encoding="utf-8"?>
<!-- Generator: Adobe Illustrator 26.5.0, SVG Export Plug-In . SVG Version: 6.00 Build 0)  -->
<svg version="1.1" id="Layer_1" xmlns="http://www.w3.org/2000/svg" xmlns:xlink="http://www.w3.org/1999/xlink" x="0px" y="0px"
	 viewBox="0 0 3600 1056.15" style="enable-background:new 0 0 3600 1056.15;" xml:space="preserve">
<style type="text/css">
	.st0{fill:#410099;}
	.st1{fill:#FFFFFF;}
	.st2{fill:#8EFF45;}
	.st3{fill:#38D430;}
	.st4{fill:#4C10C1;}
	.st5{fill:#4BD800;}
	.st6{fill:none;stroke:#FFFFFF;stroke-width:54.4471;stroke-miterlimit:10;}
</style>
<g>
	<g>
		<path class="st0" d="M850.03,832.02L623.34,962.9c-61.83,35.7-138.01,35.7-199.84,0L196.81,832.02
			c-61.83-35.7-99.92-101.67-99.92-173.07V397.2c0-71.4,38.09-137.37,99.92-173.07L423.5,93.25c61.83-35.7,138.01-35.7,199.84,0
			l226.69,130.88c61.83,35.7,99.92,101.67,99.92,173.07v261.76C949.95,730.35,911.86,796.32,850.03,832.02z"/>
		<path class="st1" d="M447.14,801.72L254.6,516.28c-28.64-42.47-17.44-100.13,25.03-128.79c15.9-10.72,33.94-15.87,51.79-15.87
			c29.81,0,59.08,14.33,77.01,40.9l115.87,171.81l-76.75,113.8c-21.4,31.72-20.47,71.96-0.82,102.13L447.14,801.72z"/>
		<path class="st2" d="M605.22,794.76l-4.5,6.68c-28.53,42.31-85.95,53.47-128.26,24.94c-42.29-28.53-53.45-85.97-24.92-128.26
			l76.75-113.8l76.65,113.65C621.11,727.86,621.54,765.24,605.22,794.76z"/>
		<path class="st3" d="M994.16,189.98c0,17.79-5.13,35.75-15.81,51.6L605.22,794.76c16.31-29.51,15.89-66.9-4.28-96.78
			l-76.65-113.65l300.88-446.06c28.53-42.31,85.95-53.47,128.26-24.94C979.89,131.18,994.16,160.32,994.16,189.98z"/>
		<g id="Final_Horizontal_00000000913455234797210990000002056278776827448205_">
			<path class="st0" d="M1302.95,489.19c-52.98-13.58-55.12-20.12-55.12-27.98l0,0c0-7.94,11.82-13.89,26.99-13.89
				c13.74,0,37.81,4.84,52.62,14.1c7.06,4.41,19.93,7.41,27.77,7.41c23.28,0,37.63-15.75,37.63-38.81c0-14.89-9.57-27.71-19.12-33.4
				c-28.51-18.06-62.12-29.05-98.22-29.05c-66.26,0-112.85,42.01-112.85,98.58v0.82c0,55.56,47.49,81.17,104.51,95.73
				c48.88,12.53,49.17,22.54,49.17,28.64v0.82c0,14.03-22.54,17.39-29.46,17.39c-23.15,0-44.88-8.24-66.39-24.07h-0.22
				c-7.6-5.32-15.76-9.8-24.92-9.8c-30.83,0-41.53,18.06-41.53,41.11c0,13.33,6.47,26.19,16.86,33.53
				c32.99,23.68,73.99,36.73,115.12,36.73c71.35,0,117.57-39.66,117.57-101.04v-0.82C1403.36,529.93,1354.97,502.75,1302.95,489.19z
				"/>
			<path class="st0" d="M1688.33,602.14H1570v-35.18h97.81c22.21,0,40.29-18.54,40.29-40.53c0-22.21-18.07-40.94-40.29-40.94H1570
				v-33.33h116.28c22.21,0,40.29-18.54,40.29-40.53c0-22.22-18.07-40.94-40.29-40.94h-159.26c-24.43,0-44.04,20.12-44.04,44.55
				v224.11c0,24.43,19.61,44.25,44.04,44.25h161.31c22.21,0,40.29-18.54,40.29-40.53C1728.62,620.86,1710.54,602.14,1688.33,602.14z
				"/>
			<path class="st0" d="M1951.02,370.69h-99.74c-24.43,0-44.28,20.12-44.28,44.55v226.58c0,24.43,19.08,43.57,43.51,43.57
				c24.43,0,43.51-19.14,43.51-43.57v-50.79h33.55l57.95,73.38c11.07,14.14,24.35,20.88,40.62,20.88
				c23.12,0,41.84-18.39,41.84-41.05c0-14.18-6.44-23.38-12.93-31.6l-34.96-41.82c33.15-18.83,49.83-50.17,49.83-91.53v-0.82
				c0-28.14-9.01-56.22-27.42-74.62C2021.14,382.47,1989.97,370.69,1951.02,370.69z M1894.02,454.01h51.66
				c25.02,0,40.92,1.9,40.92,27.77l0,0c0,18.22-16.51,29.62-39.68,29.62h-52.89V454.01z"/>
			<path class="st0" d="M2379.95,369.21c-21.02,0-35.98,13.88-41.54,27.77l-61.49,159.11l-60.67-157.06
				c-7.23-18.67-23.37-29.81-43.18-29.81c-24.43,0-43.57,18.96-43.57,43.16c0,7.68,2.33,14.31,4.62,19.8l93.19,222.85
				c8.78,20.87,25.39,32.3,46.74,32.3h4.1c21.35,0,37.96-11.43,46.75-32.32l93.95-224.78c1.33-3.01,4.26-10.57,4.26-18.67
				C2423.11,387.79,2404.15,369.21,2379.95,369.21z"/>
			<path class="st0" d="M2540.21,369.21c-24.43,0-42.59,19.14-42.59,43.57v229.04c0,24.43,18.15,43.57,42.59,43.57
				c24.43,0,42.58-19.14,42.58-43.57V412.78C2582.8,388.35,2564.64,369.21,2540.21,369.21z"/>
			<path class="st0" d="M2873.68,370.69h-160.9c-24.43,0-42.96,20.12-42.96,44.55v226.58c0,24.43,19.08,43.57,43.51,43.57
				c24.43,0,43.51-19.14,43.51-43.57v-69.31h98.37c22.44,0,40.7-19.22,40.7-41.66c0-22.44-18.26-41.66-40.7-41.66h-98.37v-35.18
				h116.84c22.44,0,40.7-19.22,40.7-41.66S2896.12,370.69,2873.68,370.69z"/>
			<path class="st0" d="M3208.2,368.8c-16.09,0-29.26,7.89-40.18,23.98l-61.16,87.33l-59.91-86.36
				c-7.15-10.53-19.17-24.54-41.07-24.54c-24.03,0-43.53,18.99-43.53,42.34c0,10.52,3.08,20.5,9.8,29.67l90.2,122.85v77.75
				c0,24.43,19.08,43.57,43.51,43.57c24.43,0,43.51-19.14,43.51-43.57v-78.96l90.84-122.19c6.93-9.7,10.7-19.49,10.7-29.12
				C3250.91,386.78,3232.97,368.8,3208.2,368.8z"/>
		</g>
	</g>
	<g>
		<polygon points="3271.9,310.56 3307.04,310.56 3307.04,402.76 3331.95,402.76 3331.95,310.56 3367.09,310.56 3367.09,290.54 
			3271.9,290.54 		"/>
		<polygon points="3472.22,290.54 3436.2,373.14 3400.03,290.54 3380.49,290.54 3380.49,402.76 3402.08,402.76 3402.08,342.29 
			3428.09,402.76 3444.01,402.76 3469.73,341.75 3469.85,402.76 3491.6,402.76 3491.6,290.54 		"/>
	</g>
</g>
</svg>
